<?xml version="1.0" encoding="UTF-8" standalone="no"?>
<!-- Created with Inkscape (http://www.inkscape.org/) -->

<svg
   xmlns:dc="http://purl.org/dc/elements/1.1/"
   xmlns:cc="http://creativecommons.org/ns#"
   xmlns:rdf="http://www.w3.org/1999/02/22-rdf-syntax-ns#"
   xmlns:svg="http://www.w3.org/2000/svg"
   xmlns="http://www.w3.org/2000/svg"
   xmlns:xlink="http://www.w3.org/1999/xlink"
   xmlns:sodipodi="http://sodipodi.sourceforge.net/DTD/sodipodi-0.dtd"
   xmlns:inkscape="http://www.inkscape.org/namespaces/inkscape"
   id="svg2"
   version="1.1"
   inkscape:version="0.48.5 r10040"
   width="1000"
   height="750"
   xml:space="preserve"
   sodipodi:docname="logo-deboertool-lion.svg"><metadata
     id="metadata8"><rdf:RDF><cc:Work
         rdf:about=""><dc:format>image/svg+xml</dc:format><dc:type
           rdf:resource="http://purl.org/dc/dcmitype/StillImage" /><dc:title></dc:title></cc:Work></rdf:RDF></metadata><defs
     id="defs6"><clipPath
       clipPathUnits="userSpaceOnUse"
       id="clipPath16"><path
         d="M 0,600 800,600 800,0 0,0 0,600 z"
         id="path18" /></clipPath><clipPath
       clipPathUnits="userSpaceOnUse"
       id="clipPath162"><path
         d="m 294.577,332.758 44.427,0 0,-49.68 -44.427,0 0,49.68 z"
         id="path164" /></clipPath><clipPath
       clipPathUnits="userSpaceOnUse"
       id="clipPath166"><path
         d="m 318.636,294.148 c 4.187,0 6.602,1.633 6.602,4.543 l 0,0.145 c 0,2.695 -2.13,4.47 -6.743,4.47 l -10.502,0 0,-9.158 10.643,0 z m -1.985,18.81 c 4.185,0 6.527,1.418 6.527,4.329 l 0,0.14 c 0,2.698 -2.13,4.261 -6.244,4.261 l -8.941,0 0,-8.73 8.658,0 z m -22.074,19.8 25.479,0 c 6.246,0 10.647,-1.56 13.557,-4.47 1.985,-1.987 3.191,-4.614 3.191,-8.02 l 0,-0.143 c 0,-5.749 -3.262,-9.156 -7.664,-11.069 6.032,-1.989 9.864,-5.395 9.864,-12.138 l 0,-0.143 c 0,-8.515 -6.952,-13.697 -18.805,-13.697 l -25.622,0 0,49.68 z"
         id="path168" /></clipPath><linearGradient
       x1="0"
       y1="0"
       x2="1"
       y2="0"
       gradientUnits="userSpaceOnUse"
       gradientTransform="matrix(0,-49.680664,-49.680664,0,316.79053,332.7583)"
       spreadMethod="pad"
       id="linearGradient174"><stop
         style="stop-opacity:0;stop-color:#ffffff"
         offset="0"
         id="stop176" /><stop
         style="stop-opacity:1;stop-color:#ffffff"
         offset="1"
         id="stop178" /></linearGradient><mask
       maskUnits="userSpaceOnUse"
       x="0"
       y="0"
       width="1"
       height="1"
       id="mask180"><g
         id="g182"><g
           id="g184"><g
             id="g186"><g
               id="g188"><path
                 d="m -32768,32767 65535,0 0,-65534 -65535,0 0,65534 z"
                 style="fill:url(#linearGradient174);stroke:none"
                 id="path190" /></g></g></g></g></mask><linearGradient
       x1="0"
       y1="0"
       x2="1"
       y2="0"
       gradientUnits="userSpaceOnUse"
       gradientTransform="matrix(0,-49.680664,-49.680664,0,316.79053,332.7583)"
       spreadMethod="pad"
       id="linearGradient192"><stop
         style="stop-opacity:1;stop-color:#f6921e"
         offset="0"
         id="stop194" /><stop
         style="stop-opacity:1;stop-color:#ba5c15"
         offset="1"
         id="stop196" /></linearGradient><clipPath
       clipPathUnits="userSpaceOnUse"
       id="clipPath220"><path
         d="m 402.301,332.758 40.311,0 0,-49.68 -40.311,0 0,49.68 z"
         id="path222" /></clipPath><clipPath
       clipPathUnits="userSpaceOnUse"
       id="clipPath224"><path
         d="m 402.301,332.758 39.957,0 0,-11.71 -26.332,0 0,-7.523 23.847,0 0,-10.859 -23.847,0 0,-7.877 26.686,0 0,-11.711 -40.311,0 0,49.68 z"
         id="path226" /></clipPath><linearGradient
       x1="0"
       y1="0"
       x2="1"
       y2="0"
       gradientUnits="userSpaceOnUse"
       gradientTransform="matrix(0,-49.680664,-49.680664,0,422.45703,332.7583)"
       spreadMethod="pad"
       id="linearGradient232"><stop
         style="stop-opacity:0;stop-color:#ffffff"
         offset="0"
         id="stop234" /><stop
         style="stop-opacity:1;stop-color:#ffffff"
         offset="1"
         id="stop236" /></linearGradient><mask
       maskUnits="userSpaceOnUse"
       x="0"
       y="0"
       width="1"
       height="1"
       id="mask238"><g
         id="g240"><g
           id="g242"><g
             id="g244"><g
               id="g246"><path
                 d="m -32768,32767 65535,0 0,-65534 -65535,0 0,65534 z"
                 style="fill:url(#linearGradient232);stroke:none"
                 id="path248" /></g></g></g></g></mask><linearGradient
       x1="0"
       y1="0"
       x2="1"
       y2="0"
       gradientUnits="userSpaceOnUse"
       gradientTransform="matrix(0,-49.680664,-49.680664,0,422.45703,332.7583)"
       spreadMethod="pad"
       id="linearGradient250"><stop
         style="stop-opacity:1;stop-color:#f6921e"
         offset="0"
         id="stop252" /><stop
         style="stop-opacity:1;stop-color:#ba5c15"
         offset="1"
         id="stop254" /></linearGradient><clipPath
       clipPathUnits="userSpaceOnUse"
       id="clipPath278"><path
         d="m 237.3,332.758 40.312,0 0,-49.68 -40.312,0 0,49.68 z"
         id="path280" /></clipPath><clipPath
       clipPathUnits="userSpaceOnUse"
       id="clipPath282"><path
         d="m 237.3,332.758 39.958,0 0,-11.71 -26.332,0 0,-7.523 23.847,0 0,-10.859 -23.847,0 0,-7.877 26.686,0 0,-11.711 -40.312,0 0,49.68 z"
         id="path284" /></clipPath><linearGradient
       x1="0"
       y1="0"
       x2="1"
       y2="0"
       gradientUnits="userSpaceOnUse"
       gradientTransform="matrix(0,-49.680664,-49.680664,0,257.45654,332.7583)"
       spreadMethod="pad"
       id="linearGradient290"><stop
         style="stop-opacity:0;stop-color:#ffffff"
         offset="0"
         id="stop292" /><stop
         style="stop-opacity:1;stop-color:#ffffff"
         offset="1"
         id="stop294" /></linearGradient><mask
       maskUnits="userSpaceOnUse"
       x="0"
       y="0"
       width="1"
       height="1"
       id="mask296"><g
         id="g298"><g
           id="g300"><g
             id="g302"><g
               id="g304"><path
                 d="m -32768,32767 65535,0 0,-65534 -65535,0 0,65534 z"
                 style="fill:url(#linearGradient290);stroke:none"
                 id="path306" /></g></g></g></g></mask><linearGradient
       x1="0"
       y1="0"
       x2="1"
       y2="0"
       gradientUnits="userSpaceOnUse"
       gradientTransform="matrix(0,-49.680664,-49.680664,0,257.45654,332.7583)"
       spreadMethod="pad"
       id="linearGradient308"><stop
         style="stop-opacity:1;stop-color:#f6921e"
         offset="0"
         id="stop310" /><stop
         style="stop-opacity:1;stop-color:#ba5c15"
         offset="1"
         id="stop312" /></linearGradient><clipPath
       clipPathUnits="userSpaceOnUse"
       id="clipPath336"><path
         d="m 449.639,332.758 45.707,0 0,-49.68 -45.707,0 0,49.68 z"
         id="path338" /></clipPath><clipPath
       clipPathUnits="userSpaceOnUse"
       id="clipPath340"><path
         d="m 472.491,308.914 c 4.683,0 7.38,2.269 7.38,5.888 l 0,0.143 c 0,3.904 -2.84,5.891 -7.451,5.891 l -9.014,0 0,-11.922 9.085,0 z m -22.852,23.844 23.49,0 c 7.594,0 12.848,-1.988 16.184,-5.393 2.907,-2.839 4.4,-6.673 4.4,-11.571 l 0,-0.137 c 0,-7.595 -4.046,-12.637 -10.221,-15.261 l 11.854,-17.318 -15.899,0 -10.009,15.047 -6.032,0 0,-15.047 -13.767,0 0,49.68 z"
         id="path342" /></clipPath><linearGradient
       x1="0"
       y1="0"
       x2="1"
       y2="0"
       gradientUnits="userSpaceOnUse"
       gradientTransform="matrix(0,-49.680664,-49.680664,0,472.49219,332.7583)"
       spreadMethod="pad"
       id="linearGradient348"><stop
         style="stop-opacity:0;stop-color:#ffffff"
         offset="0"
         id="stop350" /><stop
         style="stop-opacity:1;stop-color:#ffffff"
         offset="1"
         id="stop352" /></linearGradient><mask
       maskUnits="userSpaceOnUse"
       x="0"
       y="0"
       width="1"
       height="1"
       id="mask354"><g
         id="g356"><g
           id="g358"><g
             id="g360"><g
               id="g362"><path
                 d="m -32768,32767 65535,0 0,-65534 -65535,0 0,65534 z"
                 style="fill:url(#linearGradient348);stroke:none"
                 id="path364" /></g></g></g></g></mask><linearGradient
       x1="0"
       y1="0"
       x2="1"
       y2="0"
       gradientUnits="userSpaceOnUse"
       gradientTransform="matrix(0,-49.680664,-49.680664,0,472.49219,332.7583)"
       spreadMethod="pad"
       id="linearGradient366"><stop
         style="stop-opacity:1;stop-color:#f6921e"
         offset="0"
         id="stop368" /><stop
         style="stop-opacity:1;stop-color:#ba5c15"
         offset="1"
         id="stop370" /></linearGradient><clipPath
       clipPathUnits="userSpaceOnUse"
       id="clipPath394"><path
         d="m 342.789,333.467 53.514,0 0,-51.666 -53.514,0 0,51.666 z"
         id="path396" /></clipPath><clipPath
       clipPathUnits="userSpaceOnUse"
       id="clipPath398"><path
         d="m 382.249,307.492 0,0.142 c 0,7.166 -5.18,13.414 -12.772,13.414 -7.524,0 -12.565,-6.105 -12.565,-13.271 l 0,-0.143 c 0,-7.169 5.184,-13.413 12.705,-13.413 7.594,0 12.632,6.104 12.632,13.271 m -39.46,0 0,0.142 c 0,14.266 11.499,25.833 26.828,25.833 15.332,0 26.686,-11.426 26.686,-25.69 l 0,-0.143 c 0,-14.267 -11.499,-25.833 -26.826,-25.833 -15.33,0 -26.688,11.424 -26.688,25.691"
         id="path400" /></clipPath><linearGradient
       x1="0"
       y1="0"
       x2="1"
       y2="0"
       gradientUnits="userSpaceOnUse"
       gradientTransform="matrix(0,-51.666992,-51.666992,0,369.54541,333.46729)"
       spreadMethod="pad"
       id="linearGradient406"><stop
         style="stop-opacity:0;stop-color:#ffffff"
         offset="0"
         id="stop408" /><stop
         style="stop-opacity:1;stop-color:#ffffff"
         offset="1"
         id="stop410" /></linearGradient><mask
       maskUnits="userSpaceOnUse"
       x="0"
       y="0"
       width="1"
       height="1"
       id="mask412"><g
         id="g414"><g
           id="g416"><g
             id="g418"><g
               id="g420"><path
                 d="m -32768,32767 65535,0 0,-65534 -65535,0 0,65534 z"
                 style="fill:url(#linearGradient406);stroke:none"
                 id="path422" /></g></g></g></g></mask><linearGradient
       x1="0"
       y1="0"
       x2="1"
       y2="0"
       gradientUnits="userSpaceOnUse"
       gradientTransform="matrix(0,-51.666992,-51.666992,0,369.54541,333.46729)"
       spreadMethod="pad"
       id="linearGradient424"><stop
         style="stop-opacity:1;stop-color:#f6921e"
         offset="0"
         id="stop426" /><stop
         style="stop-opacity:1;stop-color:#ba5c15"
         offset="1"
         id="stop428" /></linearGradient><clipPath
       clipPathUnits="userSpaceOnUse"
       id="clipPath452"><path
         d="m 184.405,332.612 47.076,0 0,-49.555 -47.076,0 0,49.555 z"
         id="path454" /></clipPath><clipPath
       clipPathUnits="userSpaceOnUse"
       id="clipPath456"><path
         d="m 217.316,307.668 c 0,-7.982 -5.439,-12.502 -13.63,-12.502 l -5.58,0 0,25.146 5.58,0 c 8.191,0 13.63,-4.592 13.63,-12.505 l 0,-0.139 z m -13.798,24.944 -19.113,0 0,-49.555 18.831,0 c 17.839,0 28.245,10.62 28.245,24.918 l 0,0.143 c 0,14.299 -10.265,24.494 -27.963,24.494"
         id="path458" /></clipPath><linearGradient
       x1="0"
       y1="0"
       x2="1"
       y2="0"
       gradientUnits="userSpaceOnUse"
       gradientTransform="matrix(0,-49.555664,-49.555664,0,207.94287,332.61182)"
       spreadMethod="pad"
       id="linearGradient464"><stop
         style="stop-opacity:0;stop-color:#ffffff"
         offset="0"
         id="stop466" /><stop
         style="stop-opacity:1;stop-color:#ffffff"
         offset="1"
         id="stop468" /></linearGradient><mask
       maskUnits="userSpaceOnUse"
       x="0"
       y="0"
       width="1"
       height="1"
       id="mask470"><g
         id="g472"><g
           id="g474"><g
             id="g476"><g
               id="g478"><path
                 d="m -32768,32767 65535,0 0,-65534 -65535,0 0,65534 z"
                 style="fill:url(#linearGradient464);stroke:none"
                 id="path480" /></g></g></g></g></mask><linearGradient
       x1="0"
       y1="0"
       x2="1"
       y2="0"
       gradientUnits="userSpaceOnUse"
       gradientTransform="matrix(0,-49.555664,-49.555664,0,207.94287,332.61182)"
       spreadMethod="pad"
       id="linearGradient482"><stop
         style="stop-opacity:1;stop-color:#f6921e"
         offset="0"
         id="stop484" /><stop
         style="stop-opacity:1;stop-color:#ba5c15"
         offset="1"
         id="stop486" /></linearGradient><clipPath
       clipPathUnits="userSpaceOnUse"
       id="clipPath510"><path
         d="m 110.125,337.238 70.859,0 0,-68.009 -70.859,0 0,68.009 z"
         id="path512" /></clipPath><clipPath
       clipPathUnits="userSpaceOnUse"
       id="clipPath514"><path
         d="m 129.259,319.502 c -0.198,-1.226 -0.897,-2.376 -3.293,-2.376 -1.944,0 -2.422,1.511 -2.539,2.248 -2.421,0.248 -3.998,1.083 -2.128,3.25 0,0 0,-2.366 2.783,-2.227 2.784,0.139 5.846,-0.075 7.376,-0.626 0,0 -0.906,-0.14 -2.199,-0.269 m 22.241,-8.986 c 9.187,-0.418 9.968,-7.21 19.293,-7.21 9.325,0 10.191,6.798 10.191,6.798 -10.438,-2.644 -19.045,0.272 -24.473,2.499 -5.428,2.227 -8.212,0.835 -8.212,0.835 2.179,1.985 7.099,0.835 17.815,-1.809 10.718,-2.645 10.996,3.201 10.996,3.201 -6.402,-0.278 -8.351,2.366 -11.692,5.428 -3.339,3.062 -9.046,4.036 -12.525,2.923 -3.48,-1.114 -4.594,0 -4.594,0 16.424,4.593 13.084,14.057 13.084,14.057 -1.949,-4.315 -11.692,-3.48 -11.692,-3.48 3.479,-9.603 -3.618,-9.882 -3.618,-9.882 6.68,4.315 0.607,12.631 0.607,12.631 -4.265,-1.426 -10.49,-7.481 -10.49,-7.481 0.975,3.202 6.96,7.099 6.96,7.099 -4.036,1.252 -10.16,-0.696 -11.552,-4.037 -1.391,-3.34 -4.732,-4.036 -7.794,-5.289 -3.063,-1.252 -4.454,-5.01 -4.454,-5.01 0,0 -5.985,-3.897 -7.933,-5.289 -1.949,-1.392 -1.114,-2.087 -1.114,-2.087 2.366,-2.088 5.567,1.948 5.567,1.948 -0.696,-1.67 -2.366,-2.923 -3.896,-2.923 -1.532,0 -0.418,-1.531 -0.418,-1.531 3.897,-0.835 8.212,6.263 8.212,6.263 1.252,-1.392 4.036,-2.366 4.036,-2.366 -2.923,-0.139 -3.758,0.696 -3.758,0.696 -0.557,-2.087 -6.82,-5.984 -6.82,-5.984 0.974,-6.82 8.212,-8.63 8.212,-8.63 0,0 0.139,2.506 -0.279,4.315 -0.418,1.809 0.836,2.088 0.836,2.088 8.212,5.984 12.665,-1.393 12.665,-1.393 -9.465,0 -11.684,-8.628 -17.954,-8.628 -4.176,0 -6.403,3.897 -6.403,3.897 1.253,-9.048 10.996,-6.542 13.779,-2.367 2.784,4.176 10.578,4.315 10.578,4.315 0,-4.315 -2.784,-5.289 -4.176,-6.402 -1.391,-1.113 -2.226,0.278 -2.226,0.278 l -2.088,1.949 c 0,0 -1.392,-7.377 0.696,-11.059 2.088,-3.682 13.501,7.58 15.171,9.25 1.67,1.669 5.984,5.984 4.175,10.16 -1.809,4.175 -0.557,5.579 -0.557,5.579 0.139,-2.215 1.253,-4.466 1.253,-4.466 5.845,-11.413 4.315,-12.248 -3.201,-24.078 -7.517,-11.83 2.227,-16.095 2.227,-16.095 -0.975,8.351 10.577,11.058 10.577,21.245 0,10.308 -6.541,16.422 -6.541,16.422 19.221,-17.583 0.055,-30.917 0.055,-30.917 0,0 18.957,2.578 15.416,15.75 -4.838,18 -13.941,18.787 -13.941,18.787"
         id="path516" /></clipPath><linearGradient
       x1="0"
       y1="0"
       x2="1"
       y2="0"
       gradientUnits="userSpaceOnUse"
       gradientTransform="matrix(0,-68.009766,-68.009766,0,145.55518,337.23779)"
       spreadMethod="pad"
       id="linearGradient522"><stop
         style="stop-opacity:0;stop-color:#ffffff"
         offset="0"
         id="stop524" /><stop
         style="stop-opacity:1;stop-color:#ffffff"
         offset="1"
         id="stop526" /></linearGradient><mask
       maskUnits="userSpaceOnUse"
       x="0"
       y="0"
       width="1"
       height="1"
       id="mask528"><g
         id="g530"><g
           id="g532"><g
             id="g534"><g
               id="g536"><path
                 d="m -32768,32767 65535,0 0,-65534 -65535,0 0,65534 z"
                 style="fill:url(#linearGradient522);stroke:none"
                 id="path538" /></g></g></g></g></mask><linearGradient
       x1="0"
       y1="0"
       x2="1"
       y2="0"
       gradientUnits="userSpaceOnUse"
       gradientTransform="matrix(0,-68.009766,-68.009766,0,145.55518,337.23779)"
       spreadMethod="pad"
       id="linearGradient540"><stop
         style="stop-opacity:1;stop-color:#f6921e"
         offset="0"
         id="stop542" /><stop
         style="stop-opacity:1;stop-color:#ba5c15"
         offset="1"
         id="stop544" /></linearGradient><clipPath
       clipPathUnits="userSpaceOnUse"
       id="clipPath546"><path
         d="m 155.119,324.696 c 0,0 3.913,0.206 6.487,-1.338 2.574,-1.545 7.825,1.338 8.237,4.839 0,0 -0.824,-1.956 -9.679,1.03 0,0 -2.114,-3.871 -5.045,-4.531"
         id="path548" /></clipPath><linearGradient
       x1="0"
       y1="0"
       x2="1"
       y2="0"
       gradientUnits="userSpaceOnUse"
       gradientTransform="matrix(0,-6.2958984,-6.2958984,0,162.48096,329.22656)"
       spreadMethod="pad"
       id="linearGradient554"><stop
         style="stop-opacity:0;stop-color:#ffffff"
         offset="0"
         id="stop556" /><stop
         style="stop-opacity:1;stop-color:#ffffff"
         offset="1"
         id="stop558" /></linearGradient><mask
       maskUnits="userSpaceOnUse"
       x="0"
       y="0"
       width="1"
       height="1"
       id="mask560"><g
         id="g562"><g
           id="g564"><g
             id="g566"><g
               id="g568"><path
                 d="m -32768,32767 65535,0 0,-65534 -65535,0 0,65534 z"
                 style="fill:url(#linearGradient554);stroke:none"
                 id="path570" /></g></g></g></g></mask><linearGradient
       x1="0"
       y1="0"
       x2="1"
       y2="0"
       gradientUnits="userSpaceOnUse"
       gradientTransform="matrix(0,-6.2958984,-6.2958984,0,162.48096,329.22656)"
       spreadMethod="pad"
       id="linearGradient572"><stop
         style="stop-opacity:1;stop-color:#f6921e"
         offset="0"
         id="stop574" /><stop
         style="stop-opacity:1;stop-color:#ba5c15"
         offset="1"
         id="stop576" /></linearGradient><clipPath
       clipPathUnits="userSpaceOnUse"
       id="clipPath578"><path
         d="m 179.4,302.306 c -7.378,-4.598 -20.317,4.3 -20.317,4.3 2.658,-2.797 5.881,-10.502 12.725,-10.502 8.876,0 7.592,6.202 7.592,6.202"
         id="path580" /></clipPath><linearGradient
       x1="0"
       y1="0"
       x2="1"
       y2="0"
       gradientUnits="userSpaceOnUse"
       gradientTransform="matrix(0,-10.50293,-10.50293,0,169.27393,306.60596)"
       spreadMethod="pad"
       id="linearGradient586"><stop
         style="stop-opacity:0;stop-color:#ffffff"
         offset="0"
         id="stop588" /><stop
         style="stop-opacity:1;stop-color:#ffffff"
         offset="1"
         id="stop590" /></linearGradient><mask
       maskUnits="userSpaceOnUse"
       x="0"
       y="0"
       width="1"
       height="1"
       id="mask592"><g
         id="g594"><g
           id="g596"><g
             id="g598"><g
               id="g600"><path
                 d="m -32768,32767 65535,0 0,-65534 -65535,0 0,65534 z"
                 style="fill:url(#linearGradient586);stroke:none"
                 id="path602" /></g></g></g></g></mask><linearGradient
       x1="0"
       y1="0"
       x2="1"
       y2="0"
       gradientUnits="userSpaceOnUse"
       gradientTransform="matrix(0,-10.50293,-10.50293,0,169.27393,306.60596)"
       spreadMethod="pad"
       id="linearGradient604"><stop
         style="stop-opacity:1;stop-color:#f6921e"
         offset="0"
         id="stop606" /><stop
         style="stop-opacity:1;stop-color:#ba5c15"
         offset="1"
         id="stop608" /></linearGradient><clipPath
       clipPathUnits="userSpaceOnUse"
       id="clipPath610"><path
         d="m 147.464,305.395 c 0.219,-3.339 -4.314,-8.519 -10.021,-14.643 -5.706,-6.125 0.415,-13.439 0.415,-13.439 0,3.062 5.57,9.958 9.614,15.804 4.044,5.846 -0.008,12.278 -0.008,12.278"
         id="path612" /></clipPath><linearGradient
       x1="0"
       y1="0"
       x2="1"
       y2="0"
       gradientUnits="userSpaceOnUse"
       gradientTransform="matrix(0,-28.083008,-28.083008,0,142.13867,305.39502)"
       spreadMethod="pad"
       id="linearGradient618"><stop
         style="stop-opacity:0;stop-color:#ffffff"
         offset="0"
         id="stop620" /><stop
         style="stop-opacity:1;stop-color:#ffffff"
         offset="1"
         id="stop622" /></linearGradient><mask
       maskUnits="userSpaceOnUse"
       x="0"
       y="0"
       width="1"
       height="1"
       id="mask624"><g
         id="g626"><g
           id="g628"><g
             id="g630"><g
               id="g632"><path
                 d="m -32768,32767 65535,0 0,-65534 -65535,0 0,65534 z"
                 style="fill:url(#linearGradient618);stroke:none"
                 id="path634" /></g></g></g></g></mask><linearGradient
       x1="0"
       y1="0"
       x2="1"
       y2="0"
       gradientUnits="userSpaceOnUse"
       gradientTransform="matrix(0,-28.083008,-28.083008,0,142.13867,305.39502)"
       spreadMethod="pad"
       id="linearGradient636"><stop
         style="stop-opacity:1;stop-color:#f6921e"
         offset="0"
         id="stop638" /><stop
         style="stop-opacity:1;stop-color:#ba5c15"
         offset="1"
         id="stop640" /></linearGradient><linearGradient
       inkscape:collect="always"
       xlink:href="#linearGradient192"
       id="linearGradient3475"
       gradientUnits="userSpaceOnUse"
       gradientTransform="matrix(0,-49.680664,-49.680664,0,316.79053,332.7583)"
       spreadMethod="pad"
       x1="0"
       y1="0"
       x2="1"
       y2="0" /><linearGradient
       inkscape:collect="always"
       xlink:href="#linearGradient250"
       id="linearGradient3477"
       gradientUnits="userSpaceOnUse"
       gradientTransform="matrix(0,-49.680664,-49.680664,0,422.45703,332.7583)"
       spreadMethod="pad"
       x1="0"
       y1="0"
       x2="1"
       y2="0" /><linearGradient
       inkscape:collect="always"
       xlink:href="#linearGradient308"
       id="linearGradient3479"
       gradientUnits="userSpaceOnUse"
       gradientTransform="matrix(0,-49.680664,-49.680664,0,257.45654,332.7583)"
       spreadMethod="pad"
       x1="0"
       y1="0"
       x2="1"
       y2="0" /><linearGradient
       inkscape:collect="always"
       xlink:href="#linearGradient366"
       id="linearGradient3481"
       gradientUnits="userSpaceOnUse"
       gradientTransform="matrix(0,-49.680664,-49.680664,0,472.49219,332.7583)"
       spreadMethod="pad"
       x1="0"
       y1="0"
       x2="1"
       y2="0" /><linearGradient
       inkscape:collect="always"
       xlink:href="#linearGradient424"
       id="linearGradient3483"
       gradientUnits="userSpaceOnUse"
       gradientTransform="matrix(0,-51.666992,-51.666992,0,369.54541,333.46729)"
       spreadMethod="pad"
       x1="0"
       y1="0"
       x2="1"
       y2="0" /><linearGradient
       inkscape:collect="always"
       xlink:href="#linearGradient482"
       id="linearGradient3485"
       gradientUnits="userSpaceOnUse"
       gradientTransform="matrix(0,-49.555664,-49.555664,0,207.94287,332.61182)"
       spreadMethod="pad"
       x1="0"
       y1="0"
       x2="1"
       y2="0" /><linearGradient
       inkscape:collect="always"
       xlink:href="#linearGradient540"
       id="linearGradient3487"
       gradientUnits="userSpaceOnUse"
       gradientTransform="matrix(0,-68.009766,-68.009766,0,145.55518,337.23779)"
       spreadMethod="pad"
       x1="0"
       y1="0"
       x2="1"
       y2="0" /><linearGradient
       inkscape:collect="always"
       xlink:href="#linearGradient572"
       id="linearGradient3489"
       gradientUnits="userSpaceOnUse"
       gradientTransform="matrix(0,-6.2958984,-6.2958984,0,162.48096,329.22656)"
       spreadMethod="pad"
       x1="0"
       y1="0"
       x2="1"
       y2="0" /><linearGradient
       inkscape:collect="always"
       xlink:href="#linearGradient604"
       id="linearGradient3491"
       gradientUnits="userSpaceOnUse"
       gradientTransform="matrix(0,-10.50293,-10.50293,0,169.27393,306.60596)"
       spreadMethod="pad"
       x1="0"
       y1="0"
       x2="1"
       y2="0" /><linearGradient
       inkscape:collect="always"
       xlink:href="#linearGradient636"
       id="linearGradient3493"
       gradientUnits="userSpaceOnUse"
       gradientTransform="matrix(0,-28.083008,-28.083008,0,142.13867,305.39502)"
       spreadMethod="pad"
       x1="0"
       y1="0"
       x2="1"
       y2="0" /><linearGradient
       inkscape:collect="always"
       xlink:href="#linearGradient540"
       id="linearGradient3662"
       gradientUnits="userSpaceOnUse"
       gradientTransform="matrix(0,-68.009766,-68.009766,0,145.55518,337.23779)"
       spreadMethod="pad"
       x1="0"
       y1="0"
       x2="1"
       y2="0" /><linearGradient
       inkscape:collect="always"
       xlink:href="#linearGradient572"
       id="linearGradient3664"
       gradientUnits="userSpaceOnUse"
       gradientTransform="matrix(0,-6.2958984,-6.2958984,0,162.48096,329.22656)"
       spreadMethod="pad"
       x1="0"
       y1="0"
       x2="1"
       y2="0" /><linearGradient
       inkscape:collect="always"
       xlink:href="#linearGradient604"
       id="linearGradient3666"
       gradientUnits="userSpaceOnUse"
       gradientTransform="matrix(0,-10.50293,-10.50293,0,169.27393,306.60596)"
       spreadMethod="pad"
       x1="0"
       y1="0"
       x2="1"
       y2="0" /><linearGradient
       inkscape:collect="always"
       xlink:href="#linearGradient636"
       id="linearGradient3668"
       gradientUnits="userSpaceOnUse"
       gradientTransform="matrix(0,-28.083008,-28.083008,0,142.13867,305.39502)"
       spreadMethod="pad"
       x1="0"
       y1="0"
       x2="1"
       y2="0" /></defs><sodipodi:namedview
     pagecolor="#ffffff"
     bordercolor="#666666"
     borderopacity="1"
     objecttolerance="10"
     gridtolerance="10"
     guidetolerance="10"
     inkscape:pageopacity="0"
     inkscape:pageshadow="2"
     inkscape:window-width="1920"
     inkscape:window-height="1017"
     id="namedview4"
     showgrid="false"
     inkscape:zoom="0.89001174"
     inkscape:cx="566.50637"
     inkscape:cy="403.74477"
     inkscape:window-x="-4"
     inkscape:window-y="-4"
     inkscape:window-maximized="1"
     inkscape:current-layer="g10" /><g
     id="g10"
     inkscape:groupmode="layer"
     inkscape:label="DBT_RGB"
     transform="matrix(1.25,0,0,-1.25,0,750)"><g
       id="g20"
       transform="matrix(7.6347986,0,0,7.6347986,278.67935,421.15322)"><path
         d="m 0,0 c -0.198,-1.227 -0.897,-2.376 -3.292,-2.376 -1.944,0 -2.423,1.51 -2.54,2.248 -2.42,0.248 -3.998,1.083 -2.128,3.25 0,0 0,-2.366 2.783,-2.227 C -2.393,1.034 0.669,0.82 2.2,0.269 2.2,0.269 1.293,0.129 0,0 m 22.242,-8.987 c 9.186,-0.417 9.967,-7.209 19.293,-7.209 9.324,0 10.191,6.798 10.191,6.798 -10.438,-2.644 -19.046,0.272 -24.474,2.499 -5.428,2.226 -8.211,0.835 -8.211,0.835 2.178,1.985 7.098,0.835 17.814,-1.81 10.718,-2.644 10.996,3.201 10.996,3.201 -6.402,-0.278 -8.351,2.366 -11.691,5.429 -3.34,3.062 -9.047,4.036 -12.526,2.922 -3.48,-1.113 -4.593,0 -4.593,0 C 35.464,8.271 32.124,17.735 32.124,17.735 30.175,13.421 20.432,14.256 20.432,14.256 23.912,4.653 16.814,4.374 16.814,4.374 23.495,8.689 17.421,17.005 17.421,17.005 13.156,15.578 6.932,9.524 6.932,9.524 c 0.974,3.201 6.959,7.098 6.959,7.098 C 9.855,17.875 3.731,15.926 2.339,12.586 0.948,9.246 -2.393,8.55 -5.455,7.297 -8.518,6.044 -9.909,2.287 -9.909,2.287 c 0,0 -5.985,-3.898 -7.933,-5.289 -1.949,-1.392 -1.114,-2.088 -1.114,-2.088 2.367,-2.088 5.567,1.948 5.567,1.948 -0.695,-1.67 -2.365,-2.922 -3.896,-2.922 -1.532,0 -0.418,-1.531 -0.418,-1.531 3.897,-0.836 8.212,6.263 8.212,6.263 1.252,-1.392 4.036,-2.366 4.036,-2.366 -2.923,-0.139 -3.758,0.696 -3.758,0.696 -0.557,-2.088 -6.82,-5.985 -6.82,-5.985 0.974,-6.82 8.212,-8.629 8.212,-8.629 0,0 0.139,2.505 -0.279,4.314 -0.418,1.809 0.836,2.088 0.836,2.088 8.212,5.985 12.665,-1.392 12.665,-1.392 -9.464,0 -11.684,-8.629 -17.954,-8.629 -4.176,0 -6.403,3.897 -6.403,3.897 1.253,-9.047 10.996,-6.541 13.779,-2.366 2.784,4.176 10.578,4.315 10.578,4.315 0,-4.315 -2.783,-5.289 -4.175,-6.403 -1.392,-1.113 -2.227,0.279 -2.227,0.279 l -2.088,1.948 c 0,0 -1.391,-7.377 0.696,-11.059 2.088,-3.681 13.501,7.581 15.171,9.25 1.67,1.67 5.984,5.985 4.175,10.16 -1.809,4.175 -0.557,5.579 -0.557,5.579 0.14,-2.215 1.253,-4.466 1.253,-4.466 5.846,-11.412 4.315,-12.247 -3.201,-24.077 -7.516,-11.83 2.227,-16.096 2.227,-16.096 -0.975,8.352 10.577,11.059 10.577,21.245 0,10.308 -6.541,16.423 -6.541,16.423 19.222,-17.584 0.055,-30.918 0.055,-30.918 0,0 18.958,2.578 15.417,15.75 -4.839,18 -13.941,18.787 -13.941,18.787"
         style="fill:#f6921e;fill-opacity:1;fill-rule:nonzero;stroke:none"
         id="path22"
         inkscape:connector-curvature="0" /></g><g
       id="g24"
       transform="matrix(7.6347986,0,0,7.6347986,476.11753,460.8076)"><path
         d="M 0,0 C 0,0 3.913,0.206 6.487,-1.338 9.061,-2.883 14.312,0 14.724,3.5 14.724,3.5 13.9,1.544 5.045,4.53 5.045,4.53 2.931,0.66 0,0"
         style="fill:#f6921e;fill-opacity:1;fill-rule:nonzero;stroke:none"
         id="path26"
         inkscape:connector-curvature="0" /></g><g
       id="g28"
       transform="matrix(7.6347986,0,0,7.6347986,661.50035,289.86369)"><path
         d="M 0,0 C -7.378,-4.598 -20.317,4.3 -20.317,4.3 -17.659,1.503 -14.436,-6.203 -7.592,-6.203 1.283,-6.203 0,0 0,0"
         style="fill:#f6921e;fill-opacity:1;fill-rule:nonzero;stroke:none"
         id="path30"
         inkscape:connector-curvature="0" /></g><g
       id="g32"
       transform="matrix(7.6347986,0,0,7.6347986,417.67544,313.44606)"><path
         d="m 0,0 c 0.219,-3.339 -4.314,-8.519 -10.021,-14.643 -5.706,-6.125 0.415,-13.44 0.415,-13.44 0,3.063 5.57,9.959 9.613,15.805 C 4.051,-6.432 0,0 0,0"
         style="fill:#f6921e;fill-opacity:1;fill-rule:nonzero;stroke:none"
         id="path34"
         inkscape:connector-curvature="0" /></g><g
       id="g506"
       transform="matrix(7.6347986,0,0,7.6347986,-708.18556,-2018.1833)"><g
         id="g508" /><g
         id="g642"><g
           clip-path="url(#clipPath510)"
           id="g644"
           style="opacity:0.5"><g
             id="g646"><g
               clip-path="url(#clipPath514)"
               id="g648"><g
                 id="g650"><g
                   id="g652" /><g
                   mask="url(#mask528)"
                   id="g654"><g
                     id="g656"><path
                       d="m 129.259,319.502 c -0.198,-1.226 -0.897,-2.376 -3.293,-2.376 -1.944,0 -2.422,1.511 -2.539,2.248 -2.421,0.248 -3.998,1.083 -2.128,3.25 0,0 0,-2.366 2.783,-2.227 2.784,0.139 5.846,-0.075 7.376,-0.626 0,0 -0.906,-0.14 -2.199,-0.269 m 22.241,-8.986 c 9.187,-0.418 9.968,-7.21 19.293,-7.21 9.325,0 10.191,6.798 10.191,6.798 -10.438,-2.644 -19.045,0.272 -24.473,2.499 -5.428,2.227 -8.212,0.835 -8.212,0.835 2.179,1.985 7.099,0.835 17.815,-1.809 10.718,-2.645 10.996,3.201 10.996,3.201 -6.402,-0.278 -8.351,2.366 -11.692,5.428 -3.339,3.062 -9.046,4.036 -12.525,2.923 -3.48,-1.114 -4.594,0 -4.594,0 16.424,4.593 13.084,14.057 13.084,14.057 -1.949,-4.315 -11.692,-3.48 -11.692,-3.48 3.479,-9.603 -3.618,-9.882 -3.618,-9.882 6.68,4.315 0.607,12.631 0.607,12.631 -4.265,-1.426 -10.49,-7.481 -10.49,-7.481 0.975,3.202 6.96,7.099 6.96,7.099 -4.036,1.252 -10.16,-0.696 -11.552,-4.037 -1.391,-3.34 -4.732,-4.036 -7.794,-5.289 -3.063,-1.252 -4.454,-5.01 -4.454,-5.01 0,0 -5.985,-3.897 -7.933,-5.289 -1.949,-1.392 -1.114,-2.087 -1.114,-2.087 2.366,-2.088 5.567,1.948 5.567,1.948 -0.696,-1.67 -2.366,-2.923 -3.896,-2.923 -1.532,0 -0.418,-1.531 -0.418,-1.531 3.897,-0.835 8.212,6.263 8.212,6.263 1.252,-1.392 4.036,-2.366 4.036,-2.366 -2.923,-0.139 -3.758,0.696 -3.758,0.696 -0.557,-2.087 -6.82,-5.984 -6.82,-5.984 0.974,-6.82 8.212,-8.63 8.212,-8.63 0,0 0.139,2.506 -0.279,4.315 -0.418,1.809 0.836,2.088 0.836,2.088 8.212,5.984 12.665,-1.393 12.665,-1.393 -9.465,0 -11.684,-8.628 -17.954,-8.628 -4.176,0 -6.403,3.897 -6.403,3.897 1.253,-9.048 10.996,-6.542 13.779,-2.367 2.784,4.176 10.578,4.315 10.578,4.315 0,-4.315 -2.784,-5.289 -4.176,-6.402 -1.391,-1.113 -2.226,0.278 -2.226,0.278 l -2.088,1.949 c 0,0 -1.392,-7.377 0.696,-11.059 2.088,-3.682 13.501,7.58 15.171,9.25 1.67,1.669 5.984,5.984 4.175,10.16 -1.809,4.175 -0.557,5.579 -0.557,5.579 0.139,-2.215 1.253,-4.466 1.253,-4.466 5.845,-11.413 4.315,-12.248 -3.201,-24.078 -7.517,-11.83 2.227,-16.095 2.227,-16.095 -0.975,8.351 10.577,11.058 10.577,21.245 0,10.308 -6.541,16.422 -6.541,16.422 19.221,-17.583 0.055,-30.917 0.055,-30.917 0,0 18.957,2.578 15.416,15.75 -4.838,18 -13.941,18.787 -13.941,18.787"
                       style="fill:url(#linearGradient3662);stroke:none"
                       id="path658"
                       inkscape:connector-curvature="0" /></g></g></g></g></g><g
             id="g660"><g
               clip-path="url(#clipPath546)"
               id="g662"><g
                 id="g664"><g
                   id="g666" /><g
                   mask="url(#mask560)"
                   id="g668"><g
                     id="g670"><path
                       d="m 155.119,324.696 c 0,0 3.913,0.206 6.487,-1.338 2.574,-1.545 7.825,1.338 8.237,4.839 0,0 -0.824,-1.956 -9.679,1.03 0,0 -2.114,-3.871 -5.045,-4.531"
                       style="fill:url(#linearGradient3664);stroke:none"
                       id="path672"
                       inkscape:connector-curvature="0" /></g></g></g></g></g><g
             id="g674"><g
               clip-path="url(#clipPath578)"
               id="g676"><g
                 id="g678"><g
                   id="g680" /><g
                   mask="url(#mask592)"
                   id="g682"><g
                     id="g684"><path
                       d="m 179.4,302.306 c -7.378,-4.598 -20.317,4.3 -20.317,4.3 2.658,-2.797 5.881,-10.502 12.725,-10.502 8.876,0 7.592,6.202 7.592,6.202"
                       style="fill:url(#linearGradient3666);stroke:none"
                       id="path686"
                       inkscape:connector-curvature="0" /></g></g></g></g></g><g
             id="g688"><g
               clip-path="url(#clipPath610)"
               id="g690"><g
                 id="g692"><g
                   id="g694" /><g
                   mask="url(#mask624)"
                   id="g696"><g
                     id="g698"><path
                       d="m 147.464,305.395 c 0.219,-3.339 -4.314,-8.519 -10.021,-14.643 -5.706,-6.125 0.415,-13.439 0.415,-13.439 0,3.062 5.57,9.958 9.614,15.804 4.044,5.846 -0.008,12.278 -0.008,12.278"
                       style="fill:url(#linearGradient3668);stroke:none"
                       id="path700"
                       inkscape:connector-curvature="0" /></g></g></g></g></g></g></g></g></g></svg>